<svg width="389" height="509" viewBox="0 0 389 509" fill="none" xmlns="http://www.w3.org/2000/svg">
<g id="Group 2">
<path id="Path Copy" opacity="0.0991676" d="M-108.245 642.353L-557.256 376.729C-571.551 368.683 -583.804 355.501 -569.875 346.852L-119.267 86.8897C-112.513 82.6963 -102.249 79.9444 -95.3637 83.9543L375.901 357.781C390.197 366.089 392.762 389.231 378.52 397.618L-49.075 641.933C-67.3366 652.537 -89.8353 652.697 -108.245 642.353Z" fill="#6862E6"/>
<path id="Path Copy 2" opacity="0.0991676" d="M-108.245 266.353L-557.256 0.729492C-571.551 -7.31652 -583.804 -20.4994 -569.875 -29.1482L-119.267 -289.11C-112.513 -293.304 -102.249 -296.056 -95.3637 -292.046L375.901 -18.2192C390.197 -9.91114 392.762 13.231 378.52 21.6177L-49.075 265.933C-67.3366 276.537 -89.8353 276.697 -108.245 266.353Z" stroke="#1E1F36"/>
<path id="Path Copy 3" opacity="0.0991676" d="M-108.245 381.353L-557.256 115.729C-571.551 107.683 -583.804 94.5006 -569.875 85.8518L-119.267 -174.11C-112.513 -178.304 -102.249 -181.056 -95.3637 -177.046L375.901 96.7808C390.197 105.089 392.762 128.231 378.52 136.618L-49.075 380.933C-67.3366 391.537 -89.8353 391.697 -108.245 381.353Z" stroke="#1E1F36"/>
</g>
</svg>
